<?xml version="1.0" standalone="no"?>
<!DOCTYPE svg PUBLIC "-//W3C//DTD SVG 1.1//EN" "http://www.w3.org/Graphics/SVG/1.1/DTD/svg11.dtd" >
<svg xmlns="http://www.w3.org/2000/svg">
<metadata>
This is a custom SVG font generated by IcoMoon.
<iconset grid="20"></iconset>
</metadata>
<defs>
<font id="icomoon" horiz-adv-x="640" >
<font-face units-per-em="640" ascent="608" descent="-32" />
<missing-glyph horiz-adv-x="640" />
<glyph unicode="&#x23;" d="M 560.00,168.00L 560.00,88.00L 80.00,88.00L 80.00,168.00L0.00,168.00L0.00,8.00L 640.00,8.00L 640.00,168.00 	zM 160.00,328.00L 280.00,328.00L 280.00,128.00L 360.00,128.00L 360.00,328.00L 480.00,328.00L 320.00,568.00 	z"  />
<glyph unicode="&#x2f;" d="M 634.30,28.94c 7.62-7.62, 7.62-19.98,0.00-27.62l-27.62-27.62
	c-7.64-7.62-20.00-7.62-27.62,0.00l-193.36,193.36c-2.10,2.10-3.50,4.58-4.44,7.22C 341.60,145.30, 292.90,128.00, 240.00,128.00
	C 107.46,128.00,0.00,235.46,0.00,368.00C0.00,500.54, 107.46,608.00, 240.00,608.00c 132.54,0.00, 240.00-107.46, 240.00-240.00c0.00-52.90-17.30-101.60-46.28-141.26
	c 2.64-0.94, 5.12-2.32, 7.22-4.44L 634.30,28.94z M 240.00,528.00c-88.36,0.00-160.00-71.64-160.00-160.00c0.00-88.36, 71.64-160.00, 160.00-160.00s 160.00,71.64, 160.00,160.00
	C 400.00,456.36, 328.36,528.00, 240.00,528.00z"  />
<glyph unicode="&#x31;" d="M 480.00,102.40L 64.00,102.40 l0.00,288.00 l 83.04,0.00 c0.00,0.00, 22.048,28.672, 69.44,64.00L 32.00,454.40 c-17.664,0.00-32.00-14.336-32.00-32.00l0.00-352.00 c0.00-17.696, 14.336-32.00, 32.00-32.00l 480.00,0.00 c 17.696,0.00, 32.00,14.304, 32.00,32.00l0.00,119.872 
		l-64.00-52.64L 480.00,102.40 z M 427.584,324.80l0.00-113.60 L 640.00,377.632L 427.584,537.60l0.00-100.16 C 169.60,437.408, 169.60,182.40, 169.60,182.40C 242.624,302.336, 287.552,324.80, 427.584,324.80z"  />
<glyph unicode="&#x32;" d="M 53.334,21.334c0.00-29.466, 23.866-53.334, 53.334-53.334l 426.666,0.00 c 29.466,0.00, 53.334,23.866, 53.334,53.334L 586.666,288.00 c0.00,29.466-23.866,53.334-53.334,53.334L 213.334,341.334 l0.00,93.334 
	c0.00,58.934, 47.734,106.666, 106.666,106.666s 106.666-47.734, 106.666-106.666l0.00-6.666 c0.00-18.40, 14.934-33.334, 33.334-33.334s 33.334,14.934, 33.334,33.334L 493.334,434.666 c0.00,95.734-77.60,173.334-173.334,173.334c-95.746,0.00-173.334-77.60-173.334-173.334l0.00-93.334 L 106.666,341.334 
	c-29.466,0.00-53.334-23.866-53.334-53.334L 53.334,21.334 z M 266.666,194.666c0.00,29.466, 23.866,53.334, 53.334,53.334s 53.334-23.866, 53.334-53.334c0.00-18.80-9.734-35.334-24.40-44.80c0.00,0.00, 5.214-31.466, 11.066-68.534
	c0.00-11.066-8.934-20.00-20.00-20.00l-40.00,0.00 c-11.066,0.00-20.00,8.934-20.00,20.00l 11.066,68.534C 276.40,159.334, 266.666,175.866, 266.666,194.666z"  />
<glyph unicode="&#x5f;" d="M 146.666,434.666l0.00-93.334 L 106.666,341.334 c-29.466,0.00-53.334-23.866-53.334-53.334l0.00-266.666 c0.00-29.466, 23.866-53.334, 53.334-53.334l 426.666,0.00 c 29.466,0.00, 53.334,23.866, 53.334,53.334L 586.666,288.00 
	c0.00,29.466-23.866,53.334-53.334,53.334l-40.00,0.00 l0.00,93.334 c0.00,95.734-77.60,173.334-173.334,173.334C 224.266,608.00, 146.666,530.40, 146.666,434.666z M 213.334,341.334l0.00,93.334 c0.00,58.934, 47.734,106.666, 106.666,106.666s 106.666-47.734, 106.666-106.666l0.00-93.334 L 213.334,341.334 z M 266.666,194.666
	c0.00,29.466, 23.866,53.334, 53.334,53.334s 53.334-23.866, 53.334-53.334c0.00-18.80-9.734-35.334-24.40-44.80c0.00,0.00, 5.214-31.466, 11.066-68.534c0.00-11.066-8.934-20.00-20.00-20.00l-40.00,0.00 
	c-11.066,0.00-20.00,8.934-20.00,20.00l 11.066,68.534C 276.40,159.334, 266.666,175.866, 266.666,194.666z"  />
<glyph unicode="&#x55;" d="M 74.146,338.574c-13.054-13.054-19.334-31.734-22.52-50.666L 0.80,47.64
	c-7.20-42.68, 35.60-85.614, 78.814-78.946l 240.546,50.146c 17.60,3.186, 36.666,8.666, 49.734,21.734l 254.80,255.08c 20.40,20.52, 20.40,53.72,0.00,74.254
	l-222.534,222.80c-20.534,20.40-53.734,20.40-74.146,0.00L 74.146,338.574z M 318.68,82.174l-124.534-23.88l-103.20,103.334l 23.72,124.68l 185.48,185.734
	c 10.266,10.28, 26.80,10.28, 37.066,0.00c 10.28-10.266, 10.28-26.934,0.00-37.20l-171.48-171.734c-12.80-12.80-12.80-33.614,0.00-46.386
	c 12.80-12.814, 33.466-12.814, 46.266,0.00l 171.614,171.734c 10.28,10.266, 26.80,10.266, 37.066,0.00c 10.28-10.28, 10.28-26.814,0.00-37.066l-171.48-171.734
	c-12.80-12.80-12.80-33.614,0.00-46.40c 12.80-12.80, 33.48-12.80, 46.266,0.00l 171.614,171.734c 10.146,10.146, 26.814,10.146, 37.08,0.00
	c 10.266-10.266, 10.266-26.934,0.00-37.186L 318.68,82.174z"  />
<glyph unicode="&#x4a;" d="M 395.36,421.36c 28.80-6.666, 51.72-31.20, 58.386-58.00
	c 2.28-12.534, 13.20-22.00, 26.28-22.00c 14.666,0.00, 26.666,12.00, 26.666,26.666c0.00,19.20-16.134,48.40-38.134,70.266c-21.60,21.334-47.334,36.40-68.534,36.40c-14.666,0.00-26.666-12.40-26.666-27.066
	C 373.36,434.574, 382.826,423.626, 395.36,421.36z M 28.826,71.76c-20.666-20.654-20.666-54.266,0.00-74.92c 20.666-20.68, 54.266-20.68, 74.80,0.00
	l 153.186,153.066c 35.746-22.294, 77.866-35.214, 123.20-35.214c 128.934,0.00, 233.334,104.40, 233.334,233.334c0.00,128.934-104.40,233.334-233.334,233.334s-233.334-104.40-233.334-233.334
	c0.00-45.20, 12.946-87.466, 35.214-123.20L 28.826,71.76z M 213.36,348.026c0.00,92.00, 74.68,166.666, 166.666,166.666c 92.00,0.00, 166.666-74.666, 166.666-166.666
	s-74.666-166.666-166.666-166.666C 288.04,181.374, 213.36,256.04, 213.36,348.026z"  />
<glyph unicode="&#x21;" d="M 82.624,428.768c-8.672,8.576-22.688,8.576-31.328,0.00c-8.64-8.544-8.64-22.432,0.00-31.008l 253.056-250.56c 8.672-8.576, 22.656-8.576, 31.328,0.00
	l 253.056,250.56c 8.64,8.576, 8.672,22.432,0.00,31.008S 566.016,437.344, 557.408,428.80L 320.00,200.288L 82.624,428.768z"  />
<glyph unicode="&#x24;" d="M 557.376,147.232c 8.672-8.576, 22.688-8.576, 31.328,0.00c 8.672,8.576, 8.672,22.432,0.00,31.008l-253.056,250.56
	c-8.64,8.576-22.656,8.576-31.296,0.00l-253.056-250.56c-8.64-8.576-8.672-22.432,0.00-31.008s 22.656-8.576, 31.328,0.00l 237.376,228.512L 557.376,147.232z"  />
<glyph unicode="&#x50;" d="M 223.929,413.714q0.00-4.643 -3.571-8.214l-140.357-140.357l 140.357-140.357q 3.571-3.571 3.571-8.214t-3.571-8.214l-17.857-17.857q-3.571-3.571 -8.214-3.571t-8.214,3.571l-166.429,166.429q-3.571,3.571 -3.571,8.214t 3.571,8.214l 166.429,166.429q 3.571,3.571 8.214,3.571t 8.214-3.571l 17.857-17.857q 3.571-3.571 3.571-8.214z" horiz-adv-x="228.57142857142858"  />
<glyph unicode="&#x4e;" d="M 212.50,265.143q0.00-4.643 -3.571-8.214l-166.429-166.429q-3.571-3.571 -8.214-3.571t-8.214,3.571l-17.857,17.857q-3.571,3.571 -3.571,8.214t 3.571,8.214l 140.357,140.357l-140.357,140.357q-3.571,3.571 -3.571,8.214t 3.571,8.214l 17.857,17.857q 3.571,3.571 8.214,3.571t 8.214-3.571l 166.429-166.429q 3.571-3.571 3.571-8.214z" horiz-adv-x="228.57142857142858"  />
<glyph unicode="&#x6e;" d="M 228.571,448.00l0.00-320.00 q0.00-9.286 -6.786-16.071t-16.071-6.786t-16.071,6.786l-160.00,160.00q-6.786,6.786 -6.786,16.071t 6.786,16.071l 160.00,160.00q 6.786,6.786 16.071,6.786t 16.071-6.786t 6.786-16.071z" horiz-adv-x="228.57142857142858"  />
<glyph unicode="&#x70;" d="M 205.714,288.00q0.00-9.286 -6.786-16.071l-160.00-160.00q-6.786-6.786 -16.071-6.786t-16.071,6.786t-6.786,16.071l0.00,320.00 q0.00,9.286 6.786,16.071t 16.071,6.786t 16.071-6.786l 160.00-160.00q 6.786-6.786 6.786-16.071z" horiz-adv-x="228.57142857142858"  />
<glyph unicode="&#x25;" d="M 548.28,116.28L 456.56,208.00L 400.00,151.44L 491.72,59.72L 400.00-32.00L 640.00-32.00L 640.00,208.00 		zM 240.00,608.00L0.00,608.00L0.00,368.00L 91.72,459.72L 182.58,368.94L 239.14,425.50L 148.28,516.28 		zM 240.00,151.44L 183.44,208.00L 91.72,116.28L0.00,208.00L0.00-32.00L 240.00-32.00L 148.28,59.72 		zM 640.00,608.00L 400.00,608.00L 491.72,516.28L 400.86,425.50L 457.42,368.94L 548.28,459.72L 640.00,368.00 		z"  />
<glyph unicode="&#x22;" d="M 479.96,328.00L 160.04,328.00L 320.00,168.00 	zM 240.00,608.00L 400.00,608.00L 400.00,328.00L 240.00,328.00zM 480.00,448.00L 480.00,408.00L 600.00,408.00L 600.00,88.00L 40.00,88.00L 40.00,408.00L 160.00,408.00L 160.00,448.00L0.00,448.00L0.00-32.00L 640.00-32.00L 640.00,448.00 	z"  />
<glyph unicode="&#x26;" d="M 320.00,608.00L 160.04,448.04L 479.96,448.04 	zM 480.00,448.00L 480.00,408.00L 600.00,408.00L 600.00,88.00L 40.00,88.00L 40.00,408.00L 160.00,408.00L 160.00,448.00L0.00,448.00L0.00-32.00L 640.00-32.00L 640.00,448.00 	zM 240.00,448.00L 400.00,448.00L 400.00,168.00L 240.00,168.00z"  />
<glyph unicode="&#x27;" d="M 320.00,608.00C 209.56,608.00, 120.00,518.44, 120.00,408.00c0.00-13.72, 1.40-27.12, 4.04-40.04l 34.64-77.28L 320.00-32.00
	l 161.32,322.68l 34.60,77.28C 518.60,380.88, 520.00,394.28, 520.00,408.00C 520.00,518.44, 430.48,608.00, 320.00,608.00z M 320.00,328.00C 275.84,328.00, 240.00,363.80, 240.00,408.00s 35.84,80.00, 80.00,80.00s 80.00-35.84, 80.00-80.00
	S 364.16,328.00, 320.00,328.00z"  />
<glyph unicode="&#x28;" d="M 450.88,536.512C 414.368,562.848, 368.576,576.00, 313.408,576.00C 271.424,576.00, 236.032,566.72, 207.264,548.224C 161.60,519.232, 137.344,470.016, 134.40,400.576l 105.792,0.00 
		c0.00,20.224, 5.888,39.712, 17.696,58.464s 31.84,28.128, 60.096,28.128c 28.704,0.00, 48.512-7.616, 59.328-22.816c 10.848-15.264, 16.256-32.128, 16.256-50.624
		c0.00-16.096-8.064-30.816-17.792-44.224c-5.344-7.808-12.416-14.976-21.152-21.568c0.00,0.00-57.376-36.80-82.592-66.368
		c-14.624-17.152-15.936-42.816-17.216-79.648c-0.096-2.624, 0.896-8.032, 10.08-8.032s 74.144,0.00, 82.304,0.00s 9.856,6.048, 9.984,8.704
		c 0.576,13.408, 2.08,20.256, 4.544,28.00c 4.64,14.624, 17.184,27.392, 31.328,38.368l 29.12,20.096c 26.272,20.48, 47.264,37.28, 56.512,50.464
		C 494.496,361.216, 505.60,387.904, 505.60,419.552C 505.60,471.232, 487.328,510.208, 450.88,536.512z M 311.712,130.432c-36.48,1.088-66.56-24.128-67.712-63.68
		c-1.152-39.52, 27.456-65.632, 63.936-66.72c 38.08-1.12, 67.36,23.296, 68.512,62.816C 377.568,102.40, 349.792,129.312, 311.712,130.432z"  />
<glyph unicode="&#x29;" d="M 529.952,497.984c-46.144,46.176-80.80,39.264-80.80,39.264L 287.456,375.552L 102.72,190.816L 70.40,38.40l 152.416,32.32l 184.736,184.736l 161.664,161.664
		C 569.216,417.12, 576.16,451.776, 529.952,497.984z M 213.728,89.056l-51.936-11.20c-5.024,9.376-11.072,18.752-22.112,29.824
		c-11.04,11.04-20.448,17.056-29.824,22.08l 11.232,51.968l 15.008,15.008c0.00,0.00, 28.288-0.576, 60.192-32.48c 31.936-31.936, 32.512-60.224, 32.512-60.224
		L 213.728,89.056z"  />
<glyph unicode="&#x2a;" d="M 540.00,548.00L 240.00,248.00L 100.00,388.00L0.00,288.00L 240.00,48.00L 640.00,448.00 z"  />
<glyph unicode="&#x2b;" d="M 600.00,120.04L 431.88,288.00L 600.00,455.96L 487.96,568.00L 320.00,399.96L 151.96,568.00L 40.00,455.96L 207.96,288.00L 40.00,120.04L 151.96,8.00L 320.00,176.04L 487.96,8.00 		z"  />
<glyph unicode="&#x20;" horiz-adv-x="320" />
<glyph class="hidden" unicode="&#xf000;" d="M0,608L 640 -32L0 -32 z" horiz-adv-x="0" />
</font>
</defs>
</svg>
